<mxfile host="app.diagrams.net" modified="2023-12-09T00:07:47.987Z" agent="Mozilla/5.0 (Windows NT 10.0; Win64; x64; rv:121.0) Gecko/20100101 Firefox/121.0" version="22.1.7" etag="Yl8SjC-mJfR731r57J6m" type="github">
  <diagram name="Page-1" id="I6AZ1vzzf90r7oluthKE">
    <mxGraphModel>
      <root>
        <mxCell id="0" />
        <mxCell id="1" parent="0" />
      </root>
    </mxGraphModel>
  </diagram>
</mxfile>
